<?xml version="1.0" encoding="UTF-8" standalone="no"?>
<!-- Generator: Adobe Illustrator 20.1.0, SVG Export Plug-In . SVG Version: 6.00 Build 0)  -->
<svg xmlns:osb="http://www.openswatchbook.org/uri/2009/osb" xmlns:dc="http://purl.org/dc/elements/1.1/" xmlns:cc="http://creativecommons.org/ns#" xmlns:rdf="http://www.w3.org/1999/02/22-rdf-syntax-ns#" xmlns:svg="http://www.w3.org/2000/svg" xmlns="http://www.w3.org/2000/svg" xmlns:xlink="http://www.w3.org/1999/xlink" xmlns:sodipodi="http://sodipodi.sourceforge.net/DTD/sodipodi-0.dtd" xmlns:inkscape="http://www.inkscape.org/namespaces/inkscape" version="1.1" id="Layer_1" x="0px" y="0px" viewBox="0 0 1280 1280" xml:space="preserve" width="1280" height="1280"><metadata id="metadata3783"/><defs id="defs3781"><linearGradient id="linearGradient6677"><stop style="stop-color:#000000;stop-opacity:1;" offset="0" id="stop6673"/><stop style="stop-color:#000000;stop-opacity:0;" offset="1" id="stop6675"/></linearGradient><linearGradient id="linearGradient6450"><stop style="stop-color:#000000;stop-opacity:1;" offset="0" id="stop6446"/><stop style="stop-color:#000000;stop-opacity:0;" offset="1" id="stop6448"/></linearGradient><linearGradient id="linearGradient4758"><stop style="stop-color:#000000;stop-opacity:1;" offset="0" id="stop4754"/><stop style="stop-color:#000000;stop-opacity:0;" offset="1" id="stop4756"/></linearGradient>
	
	
<linearGradient xlink:href="#linearGradient4758" id="linearGradient4786" gradientUnits="userSpaceOnUse" x1="27.718287" y1="65.040115" x2="90.25309" y2="2.9777756"/><linearGradient xlink:href="#linearGradient6450" id="linearGradient6497" gradientUnits="userSpaceOnUse" x1="39.319256" y1="64.261086" x2="47.71619" y2="35.696831" gradientTransform="matrix(12.8,0,0,5.4460895,-125.44,73.907548)"/><linearGradient xlink:href="#linearGradient6450" id="linearGradient6534" gradientUnits="userSpaceOnUse" gradientTransform="matrix(12.8,0,0,5.4460895,-126.85421,415.1178)" x1="9.5986748" y1="49.719284" x2="89.921631" y2="49.719284"/><linearGradient xlink:href="#linearGradient6450" id="linearGradient6536" gradientUnits="userSpaceOnUse" gradientTransform="matrix(12.8,0,0,5.4460895,-126.85421,433.1178)" x1="39.319256" y1="64.261086" x2="47.71619" y2="35.696831"/><linearGradient xlink:href="#linearGradient6677" id="linearGradient6679" x1="-6.7629066" y1="344.68298" x2="1029.7487" y2="344.68298" gradientUnits="userSpaceOnUse" gradientTransform="translate(-1.4142136,359.21025)"/><linearGradient xlink:href="#linearGradient6450" id="linearGradient6732" gradientUnits="userSpaceOnUse" gradientTransform="matrix(12.8,0,0,5.4460895,-126.85421,430.67411)" x1="9.5986748" y1="49.719284" x2="89.921631" y2="49.719284"/><linearGradient xlink:href="#linearGradient6450" id="linearGradient6756" gradientUnits="userSpaceOnUse" gradientTransform="matrix(12.8,0,0,5.4460895,-126.85421,430.67411)" x1="9.5986748" y1="49.719284" x2="89.921631" y2="49.719284"/><linearGradient xlink:href="#linearGradient6450" id="linearGradient6758" gradientUnits="userSpaceOnUse" gradientTransform="translate(-1.4142136,359.21025)" x1="960.81995" y1="559.0484" x2="1026.6041" y2="68.316368"/><linearGradient xlink:href="#linearGradient6450" id="linearGradient6774" gradientUnits="userSpaceOnUse" gradientTransform="matrix(12.8,0,0,5.4460895,-126.85421,430.67411)" x1="9.5986748" y1="49.719284" x2="89.921631" y2="49.719284"/><linearGradient xlink:href="#linearGradient6450" id="linearGradient6776" gradientUnits="userSpaceOnUse" gradientTransform="translate(-1.4142136,359.21025)" x1="960.81995" y1="559.0484" x2="1026.6041" y2="68.316368"/><linearGradient xlink:href="#linearGradient6450" id="linearGradient6778" gradientUnits="userSpaceOnUse" gradientTransform="translate(-1.4142136,359.21025)" x1="960.81995" y1="559.0484" x2="1026.6041" y2="68.316368"/></defs>
<style type="text/css" id="style3768">
	.st0{fill:#FFFFFF;}
</style>
<g transform="translate(2,-9.4612176)" id="g6532"><g id="g6708" transform="translate(-1075.468,-4.3692599)"><g id="g6836" transform="translate(1200)"><rect transform="rotate(90)" style="fill:#000000;fill-opacity:1;stroke:none;stroke-width:2.45513487;stroke-miterlimit:4;stroke-dasharray:none;stroke-opacity:1" id="rect6805" width="351.38269" height="120.94118" x="864.86835" y="-572.47058"/><g id="g6801"><g id="g6740" transform="translate(0,20)"><path id="path6696" d="m 510.58579,481.48948 c -509.97402492,0 -512,-41.98226 -512,217.84358 0,120.35857 229.12,217.84358 512,217.84358 282.88,0 512.00001,-97.48501 512.00001,-217.84358 0,-292.81346 1.5507,-217.84358 -512.00001,-217.84358 z" style="fill:#f0ebdc;fill-opacity:1;stroke:none;stroke-width:8.34924793"/><path style="fill:url(#linearGradient6732);fill-opacity:1;stroke-width:8.34924793" d="m 510.58579,484.04579 c -513.3918,0 -512,-1.51451 -512,217.84362 0,120.3585 229.12,217.8435 512,217.8435 282.88001,0 512.00001,-97.485 512.00001,-217.8435 0,-244.8135 56.5506,-217.84362 -512.00001,-217.84362 z" id="path6698"/><g id="g6702" style="fill:#000000;fill-opacity:1" transform="matrix(12.700617,0,0,5.4038046,-117.92964,307.94436)">
		<path id="path6700" d="m 49.8,9.8 c -22.1,0 -40,17.9 -40,40 0,22.1 17.9,40 40,40 22.1,0 40,-17.9 40,-40 0,-22.1 -17.9,-40 -40,-40 z m -15,55.8 c -2.4,-2.4 -4.3,-4.2 -5.4,-5.4 v -13.5 -8 h 1.1 4.3 z M 49.7,40.7 c 0,-2.8 2.3,-5.1 5.1,-5.1 2.8,0 5.1,2.3 5.1,5.1 0,2.8 -2.3,5.1 -5.1,5.1 -2.9,0.1 -5.1,-2.2 -5.1,-5.1 z m 19.2,8 c -1.4,2.5 -3.2,4.4 -5.5,5.8 -1.3,0.8 -2.7,1.5 -4,1.9 -1.5,0.4 -3,0.6 -4.5,0.6 v -4.2 -1.4 c 2.7,-0.1 5.2,-1 7.4,-3.1 2.2,-2.1 3.3,-4.6 3.3,-7.6 0,-3 -1,-5.5 -3.1,-7.6 C 60.4,31 57.9,30 54.9,30 c -3,0 -5.6,1 -7.6,3.1 -2.1,2.1 -3.1,4.6 -3.1,7.6 v 5.4 6.1 11.9 9.9 C 43,72.8 41.1,71 38.8,68.7 V 58.2 40.7 c 0,-1.5 0.2,-3 0.6,-4.4 0.4,-1.5 1,-2.8 1.8,-4 1.5,-2.3 3.3,-4.1 5.7,-5.6 2.4,-1.4 5.1,-2 8,-2 1.5,0 3.1,0.2 4.5,0.6 1.5,0.4 2.7,1 4,1.8 2.3,1.5 4.1,3.3 5.5,5.7 1.5,2.4 2.1,5.1 2.1,8 0,2.8 -0.7,5.5 -2.1,7.9 z" style="fill:#000000;fill-opacity:1;stroke:#000000;stroke-opacity:1"/>
	</g><path style="fill:#ffffff;fill-opacity:1;stroke-width:8.34924793" d="m 575.87095,440.35673 c -37.11999,0 -71.68038,3.26806 -102.40039,10.89258 -30.71999,8.16914 -53.77461,17.97985 -72.97461,30.50586 -10.24,6.53531 -17.90539,13.61602 -23.02539,21.78516 -5.12,7.62452 -7.67383,15.78399 -7.67383,23.95312 v 95.30664 57.18555 c 29.44,12.52601 53.73961,22.33188 69.09961,28.86719 v -53.91797 -64.81055 -33.21875 -29.41211 c 0,-16.33826 12.81922,-29.94993 39.69922,-41.38672 25.6,-11.43679 58.8754,-16.88086 97.27539,-16.88086 38.4,0 70.39539,5.44407 97.27539,16.88086 26.88,11.43679 39.67382,25.04846 39.67383,41.38672 0,16.33827 -14.06461,29.9636 -42.22461,41.40039 -28.16,11.43679 -60.16461,16.33625 -94.72461,16.88086 v 7.625 22.8711 c 19.2,0 38.39961,-1.08719 57.59961,-3.26563 16.64,-2.17843 34.56117,-5.99274 51.20117,-10.34961 29.44,-7.62453 52.47843,-17.97657 70.39844,-31.59179 17.91999,-13.07061 26.87499,-27.76658 26.875,-43.01563 0,-15.79366 -7.67501,-30.49969 -26.875,-43.57031 -17.92,-13.07061 -40.95844,-22.87969 -70.39844,-31.04883 -16.64,-4.35687 -32.00117,-7.61649 -51.20117,-9.79492 -17.92,-2.17844 -38.39961,-3.27735 -57.59961,-3.27735 z m -1.27539,59.36524 c -35.84,0 -65.29883,12.52243 -65.29883,27.77148 0,15.79366 28.17883,28.32977 65.29883,27.78516 35.84,0 65.27539,-12.5361 65.27539,-27.78516 0,-15.24905 -29.43539,-27.77148 -65.27539,-27.77148 z m -325.125,16.88086 v 43.56836 73.52148 c 14.08,6.53531 38.405,16.34149 69.125,29.41211 V 516.60283 h -55.04883 z" id="path6704"/><path id="path6706" d="m 575.87095,440.35673 c -37.11999,0 -71.68038,3.26806 -102.40039,10.89258 -30.71999,8.16914 -53.77461,17.97985 -72.97461,30.50586 -10.24,6.53531 -17.90539,13.61602 -23.02539,21.78516 -5.12,7.62452 -7.67383,15.78399 -7.67383,23.95312 v 95.30664 57.18555 c 29.44,12.52601 53.73961,22.33188 69.09961,28.86719 v -53.91797 -64.81055 -33.21875 -29.41211 c 0,-16.33826 12.81922,-29.94993 39.69922,-41.38672 25.6,-11.43679 58.8754,-16.88086 97.27539,-16.88086 38.4,0 70.39539,5.44407 97.27539,16.88086 26.88,11.43679 39.67382,25.04846 39.67383,41.38672 0,16.33827 -14.06461,29.9636 -42.22461,41.40039 -28.16,11.43679 -60.16461,16.33625 -94.72461,16.88086 v 7.625 22.8711 c 19.2,0 38.39961,-1.08719 57.59961,-3.26563 16.64,-2.17843 34.56117,-5.99274 51.20117,-10.34961 29.44,-7.62453 52.47843,-17.97657 70.39844,-31.59179 17.91999,-13.07061 26.87499,-27.76658 26.875,-43.01563 0,-15.79366 -7.67501,-30.49969 -26.875,-43.57031 -17.92,-13.07061 -40.95844,-22.87969 -70.39844,-31.04883 -16.64,-4.35687 -32.00117,-7.61649 -51.20117,-9.79492 -17.92,-2.17844 -38.39961,-3.27735 -57.59961,-3.27735 z m -1.27539,59.36524 c -35.84,0 -65.29883,12.52243 -65.29883,27.77148 0,15.79366 28.17883,28.32977 65.29883,27.78516 35.84,0 65.27539,-12.5361 65.27539,-27.78516 0,-15.24905 -29.43539,-27.77148 -65.27539,-27.77148 z m -325.125,16.88086 v 43.56836 73.52148 c 14.08,6.53531 38.405,16.34149 69.125,29.41211 V 516.60283 h -55.04883 z" style="fill:url(#linearGradient6778);fill-opacity:1;stroke-width:8.34924793"/></g><g id="g6754" transform="translate(0,-160)"><path style="fill:#f0ebdc;fill-opacity:1;stroke:none;stroke-width:8.34924793" d="m 510.58579,481.48948 c -509.97402492,0 -512,-41.98226 -512,217.84358 0,120.35857 229.12,217.84358 512,217.84358 282.88,0 512.00001,-97.48501 512.00001,-217.84358 0,-292.81346 1.5507,-217.84358 -512.00001,-217.84358 z" id="path6742"/><path id="path6744" d="m 510.58579,484.04579 c -513.3918,0 -512,-1.51451 -512,217.84362 0,120.3585 229.12,217.8435 512,217.8435 282.88001,0 512.00001,-97.485 512.00001,-217.8435 0,-244.8135 56.5506,-217.84362 -512.00001,-217.84362 z" style="fill:url(#linearGradient6756);fill-opacity:1;stroke-width:8.34924793"/><g transform="matrix(12.700617,0,0,5.4038046,-117.92964,307.94436)" style="fill:#000000;fill-opacity:1" id="g6748">
		<path style="fill:#000000;fill-opacity:1;stroke:#000000;stroke-opacity:1" d="m 49.8,9.8 c -22.1,0 -40,17.9 -40,40 0,22.1 17.9,40 40,40 22.1,0 40,-17.9 40,-40 0,-22.1 -17.9,-40 -40,-40 z m -15,55.8 c -2.4,-2.4 -4.3,-4.2 -5.4,-5.4 v -13.5 -8 h 1.1 4.3 z M 49.7,40.7 c 0,-2.8 2.3,-5.1 5.1,-5.1 2.8,0 5.1,2.3 5.1,5.1 0,2.8 -2.3,5.1 -5.1,5.1 -2.9,0.1 -5.1,-2.2 -5.1,-5.1 z m 19.2,8 c -1.4,2.5 -3.2,4.4 -5.5,5.8 -1.3,0.8 -2.7,1.5 -4,1.9 -1.5,0.4 -3,0.6 -4.5,0.6 v -4.2 -1.4 c 2.7,-0.1 5.2,-1 7.4,-3.1 2.2,-2.1 3.3,-4.6 3.3,-7.6 0,-3 -1,-5.5 -3.1,-7.6 C 60.4,31 57.9,30 54.9,30 c -3,0 -5.6,1 -7.6,3.1 -2.1,2.1 -3.1,4.6 -3.1,7.6 v 5.4 6.1 11.9 9.9 C 43,72.8 41.1,71 38.8,68.7 V 58.2 40.7 c 0,-1.5 0.2,-3 0.6,-4.4 0.4,-1.5 1,-2.8 1.8,-4 1.5,-2.3 3.3,-4.1 5.7,-5.6 2.4,-1.4 5.1,-2 8,-2 1.5,0 3.1,0.2 4.5,0.6 1.5,0.4 2.7,1 4,1.8 2.3,1.5 4.1,3.3 5.5,5.7 1.5,2.4 2.1,5.1 2.1,8 0,2.8 -0.7,5.5 -2.1,7.9 z" id="path6746"/>
	</g><path id="path6750" d="m 575.87095,440.35673 c -37.11999,0 -71.68038,3.26806 -102.40039,10.89258 -30.71999,8.16914 -53.77461,17.97985 -72.97461,30.50586 -10.24,6.53531 -17.90539,13.61602 -23.02539,21.78516 -5.12,7.62452 -7.67383,15.78399 -7.67383,23.95312 v 95.30664 57.18555 c 29.44,12.52601 53.73961,22.33188 69.09961,28.86719 v -53.91797 -64.81055 -33.21875 -29.41211 c 0,-16.33826 12.81922,-29.94993 39.69922,-41.38672 25.6,-11.43679 58.8754,-16.88086 97.27539,-16.88086 38.4,0 70.39539,5.44407 97.27539,16.88086 26.88,11.43679 39.67382,25.04846 39.67383,41.38672 0,16.33827 -14.06461,29.9636 -42.22461,41.40039 -28.16,11.43679 -60.16461,16.33625 -94.72461,16.88086 v 7.625 22.8711 c 19.2,0 38.39961,-1.08719 57.59961,-3.26563 16.64,-2.17843 34.56117,-5.99274 51.20117,-10.34961 29.44,-7.62453 52.47843,-17.97657 70.39844,-31.59179 17.91999,-13.07061 26.87499,-27.76658 26.875,-43.01563 0,-15.79366 -7.67501,-30.49969 -26.875,-43.57031 -17.92,-13.07061 -40.95844,-22.87969 -70.39844,-31.04883 -16.64,-4.35687 -32.00117,-7.61649 -51.20117,-9.79492 -17.92,-2.17844 -38.39961,-3.27735 -57.59961,-3.27735 z m -1.27539,59.36524 c -35.84,0 -65.29883,12.52243 -65.29883,27.77148 0,15.79366 28.17883,28.32977 65.29883,27.78516 35.84,0 65.27539,-12.5361 65.27539,-27.78516 0,-15.24905 -29.43539,-27.77148 -65.27539,-27.77148 z m -325.125,16.88086 v 43.56836 73.52148 c 14.08,6.53531 38.405,16.34149 69.125,29.41211 V 516.60283 h -55.04883 z" style="fill:#ffffff;fill-opacity:1;stroke-width:8.34924793"/><path style="fill:url(#linearGradient6758);fill-opacity:1;stroke-width:8.34924793" d="m 575.87095,440.35673 c -37.11999,0 -71.68038,3.26806 -102.40039,10.89258 -30.71999,8.16914 -53.77461,17.97985 -72.97461,30.50586 -10.24,6.53531 -17.90539,13.61602 -23.02539,21.78516 -5.12,7.62452 -7.67383,15.78399 -7.67383,23.95312 v 95.30664 57.18555 c 29.44,12.52601 53.73961,22.33188 69.09961,28.86719 v -53.91797 -64.81055 -33.21875 -29.41211 c 0,-16.33826 12.81922,-29.94993 39.69922,-41.38672 25.6,-11.43679 58.8754,-16.88086 97.27539,-16.88086 38.4,0 70.39539,5.44407 97.27539,16.88086 26.88,11.43679 39.67382,25.04846 39.67383,41.38672 0,16.33827 -14.06461,29.9636 -42.22461,41.40039 -28.16,11.43679 -60.16461,16.33625 -94.72461,16.88086 v 7.625 22.8711 c 19.2,0 38.39961,-1.08719 57.59961,-3.26563 16.64,-2.17843 34.56117,-5.99274 51.20117,-10.34961 29.44,-7.62453 52.47843,-17.97657 70.39844,-31.59179 17.91999,-13.07061 26.87499,-27.76658 26.875,-43.01563 0,-15.79366 -7.67501,-30.49969 -26.875,-43.57031 -17.92,-13.07061 -40.95844,-22.87969 -70.39844,-31.04883 -16.64,-4.35687 -32.00117,-7.61649 -51.20117,-9.79492 -17.92,-2.17844 -38.39961,-3.27735 -57.59961,-3.27735 z m -1.27539,59.36524 c -35.84,0 -65.29883,12.52243 -65.29883,27.77148 0,15.79366 28.17883,28.32977 65.29883,27.78516 35.84,0 65.27539,-12.5361 65.27539,-27.78516 0,-15.24905 -29.43539,-27.77148 -65.27539,-27.77148 z m -325.125,16.88086 v 43.56836 73.52148 c 14.08,6.53531 38.405,16.34149 69.125,29.41211 V 516.60283 h -55.04883 z" id="path6752"/></g><g transform="translate(0,-340)" id="g6772"><path id="path6760" d="m 510.58579,481.48948 c -509.97402492,0 -512,-41.98226 -512,217.84358 0,120.35857 229.12,217.84358 512,217.84358 282.88,0 512.00001,-97.48501 512.00001,-217.84358 0,-292.81346 1.5507,-217.84358 -512.00001,-217.84358 z" style="fill:#f0ebdc;fill-opacity:1;stroke:none;stroke-width:8.34924793"/><path style="fill:url(#linearGradient6774);fill-opacity:1;stroke-width:8.34924793" d="m 510.58579,484.04579 c -513.3918,0 -512,-1.51451 -512,217.84362 0,120.3585 229.12,217.8435 512,217.8435 282.88001,0 512.00001,-97.485 512.00001,-217.8435 0,-244.8135 56.5506,-217.84362 -512.00001,-217.84362 z" id="path6762"/><g id="g6766" style="fill:#000000;fill-opacity:1" transform="matrix(12.700617,0,0,5.4038046,-117.92964,307.94436)">
		<path id="path6764" d="m 49.8,9.8 c -22.1,0 -40,17.9 -40,40 0,22.1 17.9,40 40,40 22.1,0 40,-17.9 40,-40 0,-22.1 -17.9,-40 -40,-40 z m -15,55.8 c -2.4,-2.4 -4.3,-4.2 -5.4,-5.4 v -13.5 -8 h 1.1 4.3 z M 49.7,40.7 c 0,-2.8 2.3,-5.1 5.1,-5.1 2.8,0 5.1,2.3 5.1,5.1 0,2.8 -2.3,5.1 -5.1,5.1 -2.9,0.1 -5.1,-2.2 -5.1,-5.1 z m 19.2,8 c -1.4,2.5 -3.2,4.4 -5.5,5.8 -1.3,0.8 -2.7,1.5 -4,1.9 -1.5,0.4 -3,0.6 -4.5,0.6 v -4.2 -1.4 c 2.7,-0.1 5.2,-1 7.4,-3.1 2.2,-2.1 3.3,-4.6 3.3,-7.6 0,-3 -1,-5.5 -3.1,-7.6 C 60.4,31 57.9,30 54.9,30 c -3,0 -5.6,1 -7.6,3.1 -2.1,2.1 -3.1,4.6 -3.1,7.6 v 5.4 6.1 11.9 9.9 C 43,72.8 41.1,71 38.8,68.7 V 58.2 40.7 c 0,-1.5 0.2,-3 0.6,-4.4 0.4,-1.5 1,-2.8 1.8,-4 1.5,-2.3 3.3,-4.1 5.7,-5.6 2.4,-1.4 5.1,-2 8,-2 1.5,0 3.1,0.2 4.5,0.6 1.5,0.4 2.7,1 4,1.8 2.3,1.5 4.1,3.3 5.5,5.7 1.5,2.4 2.1,5.1 2.1,8 0,2.8 -0.7,5.5 -2.1,7.9 z" style="fill:#000000;fill-opacity:1;stroke:#000000;stroke-opacity:1"/>
	</g><path style="fill:#ffffff;fill-opacity:1;stroke-width:8.34924793" d="m 575.87095,440.35673 c -37.11999,0 -71.68038,3.26806 -102.40039,10.89258 -30.71999,8.16914 -53.77461,17.97985 -72.97461,30.50586 -10.24,6.53531 -17.90539,13.61602 -23.02539,21.78516 -5.12,7.62452 -7.67383,15.78399 -7.67383,23.95312 v 95.30664 57.18555 c 29.44,12.52601 53.73961,22.33188 69.09961,28.86719 v -53.91797 -64.81055 -33.21875 -29.41211 c 0,-16.33826 12.81922,-29.94993 39.69922,-41.38672 25.6,-11.43679 58.8754,-16.88086 97.27539,-16.88086 38.4,0 70.39539,5.44407 97.27539,16.88086 26.88,11.43679 39.67382,25.04846 39.67383,41.38672 0,16.33827 -14.06461,29.9636 -42.22461,41.40039 -28.16,11.43679 -60.16461,16.33625 -94.72461,16.88086 v 7.625 22.8711 c 19.2,0 38.39961,-1.08719 57.59961,-3.26563 16.64,-2.17843 34.56117,-5.99274 51.20117,-10.34961 29.44,-7.62453 52.47843,-17.97657 70.39844,-31.59179 17.91999,-13.07061 26.87499,-27.76658 26.875,-43.01563 0,-15.79366 -7.67501,-30.49969 -26.875,-43.57031 -17.92,-13.07061 -40.95844,-22.87969 -70.39844,-31.04883 -16.64,-4.35687 -32.00117,-7.61649 -51.20117,-9.79492 -17.92,-2.17844 -38.39961,-3.27735 -57.59961,-3.27735 z m -1.27539,59.36524 c -35.84,0 -65.29883,12.52243 -65.29883,27.77148 0,15.79366 28.17883,28.32977 65.29883,27.78516 35.84,0 65.27539,-12.5361 65.27539,-27.78516 0,-15.24905 -29.43539,-27.77148 -65.27539,-27.77148 z m -325.125,16.88086 v 43.56836 73.52148 c 14.08,6.53531 38.405,16.34149 69.125,29.41211 V 516.60283 h -55.04883 z" id="path6768"/><path id="path6770" d="m 575.87095,440.35673 c -37.11999,0 -71.68038,3.26806 -102.40039,10.89258 -30.71999,8.16914 -53.77461,17.97985 -72.97461,30.50586 -10.24,6.53531 -17.90539,13.61602 -23.02539,21.78516 -5.12,7.62452 -7.67383,15.78399 -7.67383,23.95312 v 95.30664 57.18555 c 29.44,12.52601 53.73961,22.33188 69.09961,28.86719 v -53.91797 -64.81055 -33.21875 -29.41211 c 0,-16.33826 12.81922,-29.94993 39.69922,-41.38672 25.6,-11.43679 58.8754,-16.88086 97.27539,-16.88086 38.4,0 70.39539,5.44407 97.27539,16.88086 26.88,11.43679 39.67382,25.04846 39.67383,41.38672 0,16.33827 -14.06461,29.9636 -42.22461,41.40039 -28.16,11.43679 -60.16461,16.33625 -94.72461,16.88086 v 7.625 22.8711 c 19.2,0 38.39961,-1.08719 57.59961,-3.26563 16.64,-2.17843 34.56117,-5.99274 51.20117,-10.34961 29.44,-7.62453 52.47843,-17.97657 70.39844,-31.59179 17.91999,-13.07061 26.87499,-27.76658 26.875,-43.01563 0,-15.79366 -7.67501,-30.49969 -26.875,-43.57031 -17.92,-13.07061 -40.95844,-22.87969 -70.39844,-31.04883 -16.64,-4.35687 -32.00117,-7.61649 -51.20117,-9.79492 -17.92,-2.17844 -38.39961,-3.27735 -57.59961,-3.27735 z m -1.27539,59.36524 c -35.84,0 -65.29883,12.52243 -65.29883,27.77148 0,15.79366 28.17883,28.32977 65.29883,27.78516 35.84,0 65.27539,-12.5361 65.27539,-27.78516 0,-15.24905 -29.43539,-27.77148 -65.27539,-27.77148 z m -325.125,16.88086 v 43.56836 73.52148 c 14.08,6.53531 38.405,16.34149 69.125,29.41211 V 516.60283 h -55.04883 z" style="fill:url(#linearGradient6776);fill-opacity:1;stroke-width:8.34924793"/></g></g><rect y="1090.3977" x="-2" height="120.94118" width="1028" id="rect6803" style="fill:#000000;fill-opacity:1;stroke:none;stroke-width:4.19934654;stroke-miterlimit:4;stroke-dasharray:none;stroke-opacity:1"/><circle r="138.59293" cy="1150.8683" cx="512" id="path6807" style="fill:#000000;fill-opacity:1;stroke:none;stroke-width:5;stroke-miterlimit:4;stroke-dasharray:none;stroke-opacity:1"/></g></g></g></svg>
