<svg xmlns="http://www.w3.org/2000/svg" id="parallel" viewBox="0 0 108 128" width="27" height="32">
	<path class="black" d="M77.08,2.55c3.87,1.03 6.96,2.58 10.32,4.64c5.93,3.87 10.58,8.51 14.19,14.71c3.87,6.19 5.42,13.16 5.42,20.64c0,7.22 -1.81,14.18 -5.41,20.37c-3.61,6.45 -8.25,11.35 -14.19,14.96c-3.35,2.06 -6.96,3.87 -10.32,4.9c-3.87,1.03 -7.74,1.55 -11.61,1.55v-14.45c6.96,-0.26 13.42,-2.58 19.09,-8c5.67,-5.42 8.51,-11.87 8.51,-19.61c0,-7.74 -2.58,-14.19 -7.99,-19.6c-5.42,-5.42 -11.86,-8 -19.6,-8c-7.74,0 -14.44,2.58 -19.6,8c-5.42,5.42 -8,11.87 -8,19.6l0,85.9c-3.1,-3.1 -7.99,-7.74 -13.93,-13.67v-72.23c0,-3.87 0.52,-7.73 1.55,-11.35c1.03,-3.87 2.58,-7.22 4.64,-10.32c3.87,-5.93 8.52,-10.58 14.71,-14.45c6.19,-3.61 13.16,-5.16 20.64,-5.16c3.87,0 8,0.52 11.61,1.55zM78.37,42.28c0,7.22 -5.93,13.16 -13.15,13.16c-7.48,0.26 -13.16,-5.68 -13.16,-13.16c0,-7.22 5.94,-13.16 13.16,-13.16c7.22,0 13.15,5.93 13.15,13.16zM13.63,37.12l0,69.39c-6.19,-6.19 -11.09,-10.83 -13.93,-13.93l0,-55.46z" />
</svg>