<svg xmlns="http://www.w3.org/2000/svg" id="duologo" viewBox="0 0 1024 1024" width="32" height="32">
	<path class="black" d="M512,0c-282.88,0 -512,229.12 -512,512c0,282.88 229.12,512 512,512c282.88,0 512,-229.12 512,-512c0,-282.88 -229.12,-512 -512,-512z" />
	<path class="white" d="M634.88,198.42c19.2,5.12 34.56,12.79 51.2,23.03c29.44,19.2 52.48,42.25 70.4,72.97c19.2,30.72 26.88,65.28 26.88,102.4c0,35.84 -8.96,70.38 -26.87,101.1c-17.92,32 -40.96,56.33 -70.4,74.25c-16.64,10.24 -34.56,19.21 -51.2,24.33c-19.2,5.12 -38.4,7.68 -57.6,7.68v-71.68c34.56,-1.28 66.57,-12.8 94.72,-39.68c28.16,-26.88 42.23,-58.9 42.23,-97.3c0,-38.4 -12.79,-70.4 -39.67,-97.28c-26.88,-26.88 -58.87,-39.68 -97.27,-39.68c-38.4,0 -71.68,12.8 -97.27,39.68c-26.88,26.88 -39.7,58.88 -39.7,97.28v426.25c-15.36,-15.36 -39.66,-38.41 -69.1,-67.85v-358.4c0,-19.2 2.56,-38.38 7.68,-56.3c5.12,-19.2 12.78,-35.84 23.02,-51.2c19.2,-29.44 42.26,-52.5 72.98,-71.7c30.72,-17.92 65.28,-25.6 102.4,-25.6c19.2,0 39.68,2.58 57.6,7.7zM641.28,395.52c0,35.84 -29.43,65.3 -65.27,65.3c-37.12,1.28 -65.3,-28.18 -65.3,-65.3c0,-35.84 29.46,-65.28 65.3,-65.28c35.84,0 65.27,29.44 65.27,65.28zM320.01,369.92v344.32c-30.72,-30.72 -55.05,-53.76 -69.12,-69.12v-275.2z" />
</svg>
